<?xml version="1.0" encoding="UTF-8"?>
<svg width="24px" height="24px" viewBox="0 0 24 24" version="1.1" xmlns="http://www.w3.org/2000/svg" xmlns:xlink="http://www.w3.org/1999/xlink">
    <title>待作业量&amp;异常监控</title>
    <g id="首页" stroke="none" stroke-width="1" fill="none" fill-rule="evenodd">
        <g id="正常状态" transform="translate(-950.000000, -716.000000)">
            <g id="待作业量&amp;异常监控" transform="translate(950.000000, 716.000000)">
                <path d="M4.8,0 L19.2,0 C22.4,0 24,1.6 24,4.8 L24,19.2 C24,22.4 22.4,24 19.2,24 L4.8,24 C1.6,24 0,22.4 0,19.2 L0,4.8 C0,1.6 1.6,0 4.8,0 Z" id="路径" fill="#3960DF" fill-rule="nonzero"></path>
                <path d="M17.6301082,5.0000763 C17.9997758,4.99615652 18.3550176,5.14341695 18.613439,5.40778136 C18.8718603,5.67214577 19.0110069,6.03064355 18.998605,6.4001247 L18.998605,6.4001247 L18.9985072,17.752445 C18.9945973,17.8308608 18.9830168,17.9088006 18.9638771,17.9851397 L18.9638771,17.9851397 L17.4901113,16.5146296 C17.8146339,16.0147731 17.985203,15.4306119 17.980643,14.8346668 C17.9803392,13.0959982 16.5713654,11.6863829 14.8326971,11.6852876 C13.0940289,11.6841923 11.6832802,13.0920312 11.6807857,14.830698 C11.6782912,16.5693649 13.0849944,17.981246 14.8236586,17.9851397 C15.4208668,17.9890248 16.0062285,17.8185458 16.5079624,17.4946079 L16.5079624,17.4946079 L17.980643,18.965118 C17.875374,18.965118 17.7701051,18.9998459 17.6301082,18.9998459 L17.6301082,18.9998459 L6.40322477,18.9998459 C5.6301797,18.9982425 5.0033991,18.3729162 5,17.5998769 L5,17.5998769 L5,6.4001247 C5.00304377,5.62693715 5.63003223,5.00140342 6.40322477,5.0000763 L6.40322477,5.0000763 Z M14.8757505,12.8139363 C16.014545,12.8139363 16.9377204,13.7371116 16.9377204,14.8759062 C16.9377204,16.0147007 16.014545,16.9378761 14.8757505,16.9378761 C13.736956,16.9378761 12.8137806,16.0147007 12.8137806,14.8759062 C12.8137806,13.7371116 13.736956,12.8139363 14.8757505,12.8139363 Z M10.9645192,10.2494969 L8.15806966,10.2494969 C7.77147889,10.2494969 7.45808515,10.5628906 7.45808515,10.9494814 C7.45808515,11.3360722 7.77147889,11.6494659 8.15806966,11.6494659 L8.15806966,11.6494659 L10.9645192,11.6494659 C11.35111,11.6494659 11.6645037,11.3360722 11.6645037,10.9494814 C11.6645037,10.5628906 11.35111,10.2494969 10.9645192,10.2494969 L10.9645192,10.2494969 Z M15.8763485,7.44955885 L8.15806966,7.44955885 C7.77117921,7.44955885 7.45754253,7.76319553 7.45754253,8.15008599 C7.45754253,8.53697644 7.77117921,8.85061312 8.15806966,8.85061312 L8.15806966,8.85061312 L15.8763485,8.85061312 C16.263239,8.85061312 16.5768756,8.53697644 16.5768756,8.15008599 C16.5768756,7.76319553 16.263239,7.44955885 15.8763485,7.44955885 L15.8763485,7.44955885 Z" id="形状结合" fill="#FFFFFF"></path>
            </g>
        </g>
    </g>
</svg>