<?xml version="1.0" encoding="UTF-8"?>
<svg width="12px" height="12px" viewBox="0 0 12 12" version="1.1" xmlns="http://www.w3.org/2000/svg" xmlns:xlink="http://www.w3.org/1999/xlink">
    <title>数据上升</title>
    <g id="首页" stroke="none" stroke-width="1" fill="none" fill-rule="evenodd">
        <g id="正常状态" transform="translate(-352.000000, -448.000000)" fill-rule="nonzero">
            <g id="数据上升" transform="translate(352.000000, 448.000000)">
                <rect id="矩形" fill="#000000" opacity="0" x="0" y="0" width="12" height="12"></rect>
                <path d="M6.22356149,0.0871961002 L10.9270181,4.75265085 C11.003216,4.82796723 11.021456,4.93490958 10.9736529,5.02607321 C10.9258498,5.11723684 10.8208471,5.17575654 10.7051896,5.17569208 L8.39332114,5.17569208 C8.24630772,5.17459681 8.12141831,5.26854653 8.10217129,5.39471344 C7.9288678,6.4808193 6.88211474,11.2842875 1.92563505,11.9953568 C1.79240761,12.0176177 1.65884488,11.9582355 1.60214061,11.8515306 C1.54543634,11.7448258 1.5802564,11.6183962 1.68647624,11.5453129 C2.53566332,10.9692568 3.64480562,9.853148 3.95675191,7.8669544 C4.07651305,7.06007656 4.13440758,6.24721867 4.13005539,5.43371723 C4.1300987,5.29186809 3.99926653,5.17595268 3.83543947,5.17269179 L1.29481036,5.17269179 C1.17915293,5.17275625 1.0741502,5.11423655 1.02634709,5.02307292 C0.978543981,4.93190929 0.996784026,4.82496694 1.0729819,4.74965056 L5.77990458,0.0871961002 C5.83585068,0.031787992 5.91671991,0 6.00173303,0 C6.08674616,0 6.16761539,0.031787992 6.22356149,0.0871961002 Z" id="路径" fill="#18BD92"></path>
            </g>
        </g>
    </g>
</svg>