<?xml version="1.0" encoding="UTF-8"?>
<svg width="30px" height="21px" viewBox="0 0 30 21" version="1.1" xmlns="http://www.w3.org/2000/svg" xmlns:xlink="http://www.w3.org/1999/xlink">
    <title>形状</title>
    <g id="首页" stroke="none" stroke-width="1" fill="none" fill-rule="evenodd">
        <g id="正常状态" transform="translate(-1276.000000, -17.000000)" fill="#C3CBD5" fill-rule="nonzero">
            <path d="M1300.31407,26.7416578 L1298.86972,26.7416578 L1298.86972,25.3481959 C1298.86972,21.0571632 1295.71778,17.305535 1291.53995,17.0185441 C1286.95715,16.7038914 1283.13028,20.4347733 1283.13028,25.0646628 L1283.13028,26.7416578 L1281.68593,26.7416578 C1278.89508,26.7416578 1276.40458,28.7920869 1276.04686,31.6308764 C1275.61491,35.0643942 1278.2269,38 1281.49357,38 L1300.5098,38 C1303.7731,38 1306.38509,35.0643942 1305.95313,31.6308764 C1305.59879,28.7955446 1303.10492,26.7416578 1300.31407,26.7416578 Z M1291.4164,24 C1291.95461,24 1292.39092,24.4363056 1292.39092,24.9745159 L1292.39008,31.003 L1294.3413,29.1554563 C1294.727,28.7900776 1295.33107,28.7900776 1295.71676,29.1554563 L1295.71812,29.1567411 C1296.07865,29.4982807 1296.09404,30.0674191 1295.7525,30.4279471 C1295.74135,30.4397154 1295.72989,30.4511801 1295.71812,30.4623287 L1292.27133,33.7275823 C1292.0568,33.930818 1291.77469,34.0210073 1291.50019,33.9981502 C1291.22599,34.0212268 1290.94347,33.9310656 1290.72867,33.7275823 L1290.72867,33.7275823 L1287.28188,30.4623287 C1287.27011,30.4511801 1287.25865,30.4397154 1287.2475,30.4279471 C1286.90596,30.0674191 1286.92135,29.4982807 1287.28188,29.1567411 L1287.28188,29.1567411 C1287.66893,28.7900776 1288.273,28.7900776 1288.6587,29.1554563 L1288.6587,29.1554563 L1290.44108,30.844 L1290.44188,24.9745159 C1290.44188,24.4363056 1290.87819,24 1291.4164,24 Z" id="形状"></path>
        </g>
    </g>
</svg>