<?xml version="1.0" encoding="UTF-8"?>
<svg width="24px" height="24px" viewBox="0 0 24 24" version="1.1" xmlns="http://www.w3.org/2000/svg" xmlns:xlink="http://www.w3.org/1999/xlink">
    <title>入库</title>
    <g id="首页" stroke="none" stroke-width="1" fill="none" fill-rule="evenodd">
        <g id="正常状态" transform="translate(-640.000000, -125.000000)" fill-rule="nonzero">
            <g id="入库" transform="translate(640.000000, 125.000000)">
                <path d="M4.8,0 L19.2,0 C22.4,0 24,1.6 24,4.8 L24,19.2 C24,22.4 22.4,24 19.2,24 L4.8,24 C1.6,24 0,22.4 0,19.2 L0,4.8 C0,1.6 1.6,0 4.8,0 Z" id="路径" fill="#1AA4E3"></path>
                <path d="M12.78225,5.18604688 L18.03225,7.81104688 C18.6255904,8.10753989 19.0003091,8.71400145 19,9.37729688 L19,17.0449219 C19,18.0114202 18.2164983,18.7949219 17.25,18.7949219 L6.75,18.7949219 C5.78350169,18.7949219 5,18.0114202 5,17.0449219 L5,9.37642188 C5,8.71344164 5.37469167,8.10739904 5.96775,7.81104688 L11.21775,5.18604688 C11.7102188,4.93995944 12.2897812,4.93995944 12.78225,5.18604688 Z M13.4196459,8.61402161 C13.0779371,8.27231285 12.5239178,8.27231285 12.182209,8.61402161 C11.8405003,8.95573036 11.8405003,9.50974972 12.182209,9.85145847 L12.182209,9.85145847 L14.712976,12.3818371 L12.182209,14.9121186 L12.1039008,15.0017232 C11.8428732,15.3446896 11.868976,15.8363225 12.182209,16.1495555 C12.5239178,16.4912643 13.0779371,16.4912643 13.4196459,16.1495555 L13.4196459,16.1495555 L16.4248497,13.1443517 L16.5061691,13.0507701 C16.6533368,12.8551154 16.7076844,12.6118791 16.6693161,12.381663 C16.7138778,12.1126218 16.632389,11.8267648 16.4248497,11.6192254 L16.4248497,11.6192254 Z M11.824976,11.5067886 L8.32497597,11.5067886 C7.84172681,11.5067886 7.44997597,11.8985394 7.44997597,12.3817886 C7.44997597,12.8650377 7.84172681,13.2567886 8.32497597,13.2567886 L8.32497597,13.2567886 L11.824976,13.2567886 C12.3082251,13.2567886 12.699976,12.8650377 12.699976,12.3817886 C12.699976,11.8985394 12.3082251,11.5067886 11.824976,11.5067886 L11.824976,11.5067886 Z" id="形状结合" fill="#FFFFFF"></path>
            </g>
        </g>
    </g>
</svg>