<?xml version="1.0" standalone="no"?><!DOCTYPE svg PUBLIC "-//W3C//DTD SVG 1.1//EN" "http://www.w3.org/Graphics/SVG/1.1/DTD/svg11.dtd"><svg t="1640063203055" class="icon" viewBox="0 0 1024 1024" version="1.1" xmlns="http://www.w3.org/2000/svg" p-id="2299" xmlns:xlink="http://www.w3.org/1999/xlink" width="200" height="200"><defs><style type="text/css"></style></defs><path d="M1018.123717 495.323809a50.386652 50.386652 0 0 0-6.074532-10.870217 73.405935 73.405935 0 0 0-7.353382-9.591368l-152.183036-156.850834c-0.575482-0.639425-0.831252-1.406734-1.278849-1.918274l-0.511539-0.767309L566.75395 23.748227a76.283345 76.283345 0 0 0-110.492556 0L18.575311 474.606454a59.082825 59.082825 0 0 0-7.992806 10.358677c-2.110101 3.197123-4.475972 7.609152-5.754821 10.550505-3.197123 7.800979-4.795684 16.113498-4.795684 24.553901 0 32.546708 24.298132 59.850135 55.246278 63.430913 2.110101 0.25577 4.220202 0.51154 6.394246 0.511539h26.216405v375.53402c0 35.232291 27.687082 63.814567 61.896293 63.814566h232.36687c34.209212 0 61.960236-28.582276 61.960236-63.814566V607.223099a23.019283 23.019283 0 0 1 22.635628-23.275052H556.331331c12.596663 0 22.635628 10.358677 22.635628 23.275052v352.32291c0 35.168348 27.751024 63.750624 62.024178 63.750624h232.302927c34.209212 0 61.960236-28.582276 61.960236-63.814567V584.011989h26.472175c33.889499-0.383655 61.320811-29.093816 61.320811-63.814567a69.057848 69.057848 0 0 0-4.987511-24.809671z" p-id="2300"></path></svg>