<?xml version="1.0" encoding="UTF-8"?>
<svg width="24px" height="24px" viewBox="0 0 24 24" version="1.1" xmlns="http://www.w3.org/2000/svg" xmlns:xlink="http://www.w3.org/1999/xlink">
    <title>出库</title>
    <g id="首页" stroke="none" stroke-width="1" fill="none" fill-rule="evenodd">
        <g id="正常状态" transform="translate(-640.000000, -315.000000)" fill-rule="nonzero">
            <g id="出库" transform="translate(640.000000, 315.000000)">
                <path d="M4.8,0 L19.2,0 C22.4,0 24,1.6 24,4.8 L24,19.2 C24,22.4 22.4,24 19.2,24 L4.8,24 C1.6,24 0,22.4 0,19.2 L0,4.8 C0,1.6 1.6,0 4.8,0 Z" id="路径" fill="#18BD92"></path>
                <path d="M14.8335553,5 C15.5093209,5 16.0569241,5.53952648 16.0569241,6.20532511 L16.0569241,7.19139585 L18.773968,9.11876809 C18.9155975,9.21930933 18.9996659,9.38069677 19,9.55268513 L19,15.5793107 C19,16.2451093 18.4523968,16.7846358 17.7766312,16.7846358 L17.2182032,16.784782 L17.2246035,16.7416063 C17.0462644,18.0178062 15.950334,19 14.625,19 C13.1752525,19 12,17.8247475 12,16.375 L12.0051644,16.2089909 L12.0051644,16.2089909 L12.0203284,16.0467182 L12.0203284,16.0467182 L11.1046716,16.0467182 C11.0893517,15.9239226 11.0655502,15.8037613 11.0338719,15.6868391 C11.0933315,15.9064363 11.125,16.1370198 11.125,16.375 C11.125,17.8247475 9.94974747,19 8.5,19 C7.1694385,19 6.07009388,18.0100429 5.89832917,16.7264917 L5.90039654,16.7416063 L5.90039654,16.7416063 C5.38174402,16.6030824 5,16.1352098 5,15.5793107 L5,6.20532511 C5,5.53952648 5.5476032,5 6.22336884,5 L14.8335553,5 Z M14.625,15.5 C14.1417508,15.5 13.75,15.8917508 13.75,16.375 C13.75,16.8582492 14.1417508,17.25 14.625,17.25 C15.1082492,17.25 15.5,16.8582492 15.5,16.375 C15.5,15.8917508 15.1082492,15.5 14.625,15.5 Z M8.5,15.5 C8.01675084,15.5 7.625,15.8917508 7.625,16.375 C7.625,16.8582492 8.01675084,17.25 8.5,17.25 C8.98324916,17.25 9.375,16.8582492 9.375,16.375 C9.375,15.8917508 8.98324916,15.5 8.5,15.5 Z M13.3125,7.91219261 C12.8664239,7.91219261 12.4983108,8.24599215 12.4443175,8.67743447 L12.4375,8.78719261 L12.4375,10.8926587 L12.4433868,10.9947022 C12.4897192,11.3936093 12.8043464,11.7106849 13.2020999,11.7607607 L13.3125,11.7676587 L16.0620456,11.7676587 L16.1640891,11.761772 C16.5629962,11.7154395 16.8800718,11.4008123 16.9301475,11.0030588 L16.9370456,10.8926587 L16.9311588,10.7906152 C16.8848264,10.3917082 16.5701992,10.0746325 16.1724457,10.0245568 L16.0620456,10.0176587 L14.1875,10.01725 L14.1875,8.78719261 L14.1816132,8.68514913 C14.1310688,8.24997778 13.7612314,7.91219261 13.3125,7.91219261 Z" id="形状结合" fill="#FFFFFF"></path>
            </g>
        </g>
    </g>
</svg>