<?xml version="1.0" encoding="UTF-8"?>
<svg width="13px" height="13px" viewBox="0 0 13 13" version="1.1" xmlns="http://www.w3.org/2000/svg" xmlns:xlink="http://www.w3.org/1999/xlink">
    <title>刷新</title>
    <g id="首页" stroke="none" stroke-width="1" fill="none" fill-rule="evenodd">
        <g id="正常状态" transform="translate(-533.000000, -83.000000)" fill="#767D91" fill-rule="nonzero">
            <g id="刷新" transform="translate(533.000000, 83.000000)">
                <path d="M11.2302125,5.908175 C10.9955709,5.77611336 10.6982991,5.85927087 10.5662375,6.0939125 C10.4341759,6.32855413 10.5173334,6.62582586 10.751975,6.7578875 L12.236575,7.5934625 C12.5461375,7.7676625 12.932075,7.5629125 12.96165,7.208825 C12.9871625,6.9017 13,6.6668875 13,6.5 C13,2.91021251 10.0897875,0 6.5,0 C2.91021251,0 0,2.91021251 0,6.5 C0,10.0897875 2.91021249,13 6.5,13 C8.695375,13 10.7055,11.9026375 11.904425,10.1125375 C12.002371,9.96783743 12.0153832,9.78178326 11.9385322,9.62485827 C11.8616812,9.46793328 11.7067218,9.36414 11.5323575,9.35279863 C11.3579932,9.34145726 11.1908941,9.42430253 11.0943625,9.56995 C10.074675,11.092575 8.3668,12.025 6.5,12.025 C3.448575,12.025 0.974999999,9.551425 0.974999999,6.5 C0.974999999,3.448575 3.448575,0.974999999 6.5,0.974999999 C9.502675,0.974999999 11.9458625,3.37025 12.02305,6.35440001 L11.2302125,5.908175 Z" id="路径"></path>
            </g>
        </g>
    </g>
</svg>