<?xml version="1.0" encoding="UTF-8"?>
<svg width="20px" height="20px" viewBox="0 0 20 20" version="1.1" xmlns="http://www.w3.org/2000/svg" xmlns:xlink="http://www.w3.org/1999/xlink">
    <title>设置</title>
    <g id="首页" stroke="none" stroke-width="1" fill="none" fill-rule="evenodd">
        <g id="正常状态" transform="translate(-1376.000000, -126.000000)" fill-rule="nonzero">
            <g id="设置" transform="translate(1376.000000, 126.000000)">
                <rect id="矩形" fill="#C3CBD5" opacity="0" x="0" y="0" width="20" height="20"></rect>
                <path d="M11.932035,3.05194805 L12.1632029,4.65584416 L12.2556701,5.31899351 L12.8567066,5.59659091 C13.1032858,5.71996753 13.3652761,5.85876623 13.596444,6.01298701 L14.1358358,6.36769481 L14.7368724,6.13636364 L16.3088142,5.51948052 L17.7728777,7.97159091 L16.4783374,8.9586039 L15.9389456,9.375 L16.0005903,10.0535714 C16.0160015,10.1923701 16.0160015,10.3311688 16.0160015,10.4545455 C16.0160015,10.5779221 16.0160015,10.7167208 16.0005903,10.8555195 L15.9389456,11.5340909 L16.4783374,11.950487 L17.7728777,12.9375 L16.3242254,15.3896104 L14.7368724,14.7727273 L14.1358358,14.5413961 L13.596444,14.8961039 C13.3498649,15.0657468 13.1032858,15.2045455 12.8567066,15.3125 L12.2556701,15.5900974 L12.1632029,16.2378247 L11.932035,17.8571429 L8.97308561,17.8571429 L8.74191769,16.2532468 L8.64945053,15.5900974 L8.04841394,15.3125 C7.80183483,15.1891234 7.53984452,15.0503247 7.3086766,14.8961039 L6.76928479,14.5413961 L6.1682482,14.7727273 L4.59630636,15.3896104 L3.13224287,12.9375 L4.42678322,11.950487 L4.96617503,11.5340909 L4.90453025,10.8555195 C4.88911905,10.7167208 4.88911905,10.5779221 4.88911905,10.4545455 C4.88911905,10.3311688 4.88911905,10.1923701 4.90453025,10.0535714 L4.96617503,9.375 L4.42678322,8.9586039 L3.13224287,7.97159091 L4.58089516,5.51948052 L6.1682482,6.13636364 L6.76928479,6.36769481 L7.3086766,6.01298701 C7.55525571,5.84334416 7.80183483,5.70454545 8.04841394,5.59659091 L8.64945053,5.31899351 L8.74191769,4.67126623 L8.97308561,3.05194805 L11.932035,3.05194805 M12.1015581,1.81818182 L8.80356247,1.81818182 C8.27958186,1.81818182 7.84806841,2.18831169 7.77101244,2.68181818 L7.52443332,4.47077922 C7.21620943,4.60957792 6.92339674,4.77922078 6.61517284,4.97970779 L4.87370786,4.30113636 C4.7504183,4.25487013 4.62712875,4.23944805 4.50383919,4.23944805 C4.13397052,4.23944805 3.77951305,4.42451299 3.60998991,4.74837662 L1.96099209,7.52435065 C1.69900178,7.95616883 1.80688014,8.52678571 2.2075712,8.83522727 L3.67163468,9.94561688 C3.65622349,10.1306818 3.64081229,10.3003247 3.64081229,10.4545455 C3.64081229,10.6087662 3.64081229,10.7784091 3.67163468,10.963474 L2.2075712,12.0738636 C1.80688014,12.3823052 1.69900178,12.9220779 1.96099209,13.3847403 L3.59457871,16.1452922 C3.77951305,16.4691558 4.13397052,16.6696429 4.50383919,16.6696429 C4.62712875,16.6696429 4.73500711,16.6542208 4.85829666,16.6079545 L6.59976165,15.9293831 C6.89257435,16.1298701 7.20079824,16.299513 7.50902213,16.4383117 L7.77101244,18.2118506 C7.83265722,18.7053571 8.27958186,19.0909091 8.80356247,19.0909091 L12.1015581,19.0909091 C12.6255387,19.0909091 13.0570522,18.7207792 13.1341081,18.2272727 L13.3960985,16.4383117 C13.7043223,16.299513 13.997135,16.1298701 14.3053589,15.9293831 L16.0468239,16.6079545 C16.1701135,16.6542208 16.293403,16.6696429 16.4166926,16.6696429 C16.7865613,16.6696429 17.1410187,16.4845779 17.3105419,16.1607143 L18.9595397,13.3693182 C19.2061188,12.9220779 19.0982404,12.3823052 18.6975494,12.0738636 L17.2334859,10.963474 C17.2488971,10.8092532 17.2643083,10.6396104 17.2643083,10.4545455 C17.2643083,10.2694805 17.2488971,10.0998377 17.2334859,9.94561688 L18.6975494,8.83522727 C19.0982404,8.52678571 19.2061188,7.98701299 18.9441285,7.52435065 L17.3105419,4.7637987 C17.1256075,4.43993506 16.7711501,4.23944805 16.4012814,4.23944805 C16.2779918,4.23944805 16.1701135,4.25487013 16.0468239,4.30113636 L14.3053589,4.97970779 C14.0125462,4.77922078 13.7043223,4.60957792 13.3960985,4.47077922 L13.1341081,2.69724026 C13.0570522,2.18831169 12.6255387,1.81818182 12.1015581,1.81818182 Z M10.4525603,7.98701299 C11.8087454,7.98701299 12.9183514,9.0974026 12.9183514,10.4545455 C12.9183514,11.8116883 11.8087454,12.9220779 10.4525603,12.9220779 C9.09637517,12.9220779 7.98676916,11.8116883 7.98676916,10.4545455 C7.98676916,9.0974026 9.09637517,7.98701299 10.4525603,7.98701299 M10.4525603,6.75324675 C8.41828261,6.75324675 6.7538736,8.41883117 6.7538736,10.4545455 C6.7538736,12.4902597 8.41828261,14.1558442 10.4525603,14.1558442 C12.486838,14.1558442 14.151247,12.4902597 14.151247,10.4545455 C14.151247,8.41883117 12.486838,6.75324675 10.4525603,6.75324675 Z" id="形状" fill="#A9AEBA"></path>
            </g>
        </g>
    </g>
</svg>