<?xml version="1.0" encoding="UTF-8"?>
<svg width="24px" height="24px" viewBox="0 0 24 24" version="1.1" xmlns="http://www.w3.org/2000/svg" xmlns:xlink="http://www.w3.org/1999/xlink">
    <title>分区库容情况</title>
    <g id="首页" stroke="none" stroke-width="1" fill="none" fill-rule="evenodd">
        <g id="正常状态" transform="translate(-950.000000, -508.000000)" fill-rule="nonzero">
            <g id="分区库容情况" transform="translate(950.000000, 508.000000)">
                <path d="M4.8,0 L19.2,0 C22.4,0 24,1.6 24,4.8 L24,19.2 C24,22.4 22.4,24 19.2,24 L4.8,24 C1.6,24 0,22.4 0,19.2 L0,4.8 C0,1.6 1.6,0 4.8,0 Z" id="路径" fill="#3960DF"></path>
                <path d="M12.7822497,5.18732948 L18.0322495,7.85163932 C18.6255898,8.15257237 19.0003085,8.7681158 19,9.44134419 L19,17.2237932 C19,18.204765 18.2164978,19 17.2499995,19 L6.74999993,19 C5.78350166,19 5,18.204765 5,17.2237932 L5,9.44045609 C5,8.76754761 5.37469165,8.15242941 5.96774996,7.85163932 L11.2177497,5.18732948 C11.7102186,4.93755684 12.2897809,4.93755684 12.7822497,5.18732948 Z M15.5413747,14.4062499 L8.45862492,14.4062499 C7.99822655,14.4062499 7.62499993,14.7794765 7.62499993,15.2398749 L7.62499993,15.2398749 L7.62499993,15.3226249 C7.62499993,15.7830232 7.99822655,16.1562498 8.45862492,16.1562498 L8.45862492,16.1562498 L15.5413747,16.1562498 C16.0017731,16.1562498 16.3749997,15.7830232 16.3749997,15.3226249 L16.3749997,15.3226249 L16.3749997,15.2398749 C16.3749997,14.7794765 16.0017731,14.4062499 15.5413747,14.4062499 L15.5413747,14.4062499 Z M15.5413747,11.1249999 L8.45862492,11.1249999 C7.99822655,11.1249999 7.62499993,11.4982265 7.62499993,11.9586249 L7.62499993,11.9586249 L7.62499993,12.0413749 C7.62499993,12.5017733 7.99822655,12.8749999 8.45862492,12.8749999 L8.45862492,12.8749999 L15.5413747,12.8749999 C16.0017731,12.8749999 16.3749997,12.5017733 16.3749997,12.0413749 L16.3749997,12.0413749 L16.3749997,11.9586249 C16.3749997,11.4982265 16.0017731,11.1249999 15.5413747,11.1249999 L15.5413747,11.1249999 Z" id="形状结合" fill="#FFFFFF"></path>
            </g>
        </g>
    </g>
</svg>