<?xml version="1.0" encoding="UTF-8"?>
<svg width="85px" height="57px" viewBox="0 0 85 57" version="1.1" xmlns="http://www.w3.org/2000/svg" xmlns:xlink="http://www.w3.org/1999/xlink">
    <title>形状</title>
    <g id="首页" stroke="none" stroke-width="1" fill="none" fill-rule="evenodd" opacity="0.1">
        <g id="正常状态" transform="translate(-519.000000, -112.000000)" fill="#FFFFFF" fill-rule="nonzero">
            <g id="形状" transform="translate(248.000000, 112.000000)">
                <path d="M324.363996,-40.675313 L360.363993,-21.8348368 C364.432612,-19.7068102 367.002112,-15.354039 367,-10.5933526 L367,44.4396785 C367,51.3765503 361.62741,57 355,57 L283,57 C276.372583,57 271,51.3765503 271,44.4396785 L271,-10.5996328 C271,-15.3580569 273.569314,-19.7078212 277.635999,-21.8348368 L313.635997,-40.675313 C317.012925,-42.4415623 320.987067,-42.4415623 324.363996,-40.675313 Z M289.509031,18.5636667 C286.142724,18.5636667 283.413793,21.0855386 283.413793,24.1964253 L283.413793,41.0947012 C283.413793,44.2055878 286.142724,46.7274598 289.509031,46.7274598 C292.875337,46.7274598 295.604268,44.2055878 295.604268,41.0947012 L295.604268,24.1964253 C295.604268,21.0855386 292.875337,18.5636667 289.509031,18.5636667 Z M312.681444,26.4318629 C309.315137,26.4318629 306.586206,28.9537348 306.586206,32.0646215 L306.586206,41.0947012 C306.586206,44.2055878 309.315137,46.7274598 312.681444,46.7274598 C316.047751,46.7274598 318.776682,44.2055878 318.776682,41.0947012 L318.776682,32.0646215 C318.776682,28.9537348 316.047751,26.4318629 312.681444,26.4318629 Z M335.853858,2.72746157 C332.487551,2.72746157 329.75862,5.5416716 329.75862,9.0131756 L329.75862,40.4417457 C329.75862,43.9132497 332.487551,46.7274616 335.853858,46.7274616 C339.220164,46.7274616 341.949095,43.9132497 341.949095,40.4417457 L341.949095,9.0131756 C341.949095,5.5416716 339.220164,2.72746157 335.853858,2.72746157 Z"></path>
            </g>
        </g>
    </g>
</svg>