<?xml version="1.0" encoding="UTF-8"?>
<svg width="18px" height="18px" viewBox="0 0 18 18" version="1.1" xmlns="http://www.w3.org/2000/svg" xmlns:xlink="http://www.w3.org/1999/xlink">
    <title> 问号（浅色）</title>
    <g id="首页" stroke="none" stroke-width="1" fill="none" fill-rule="evenodd" opacity="0.699999988">
        <g id="正常状态" transform="translate(-356.000000, -129.000000)" fill="#FFFFFF" fill-rule="nonzero">
            <g id="编组-12" transform="translate(248.000000, 112.000000)">
                <g id="-问号（浅色）" transform="translate(108.000000, 17.000000)">
                    <path d="M8.99999999,16.5 C13.14225,16.5 16.5,13.14225 16.5,8.99999999 C16.5,4.85775 13.14225,1.49999999 8.99999999,1.49999999 C4.85775,1.49999999 1.49999999,4.85775 1.49999999,8.99999999 C1.49999999,13.14225 4.85775,16.5 8.99999999,16.5 Z M9,18 C4.02975,18 0,13.97025 0,9 C0,4.02975 4.02975,0 9,0 C13.97025,0 18,4.02975 18,9 C18,13.97025 13.97025,18 9,18 Z" id="形状" fill-opacity="0.9"></path>
                    <path d="M9.15371209,3 C8.08504706,3 7.23597072,3.31730769 6.62112234,3.96703296 C5.99163472,4.60164835 5.68421053,5.46291208 5.68421053,6.56593406 L7.23597072,6.56593406 C7.23597072,5.90109889 7.36772394,5.37225274 7.63123039,5.00961538 C7.92401534,4.58653846 8.40711049,4.375 9.06587661,4.375 C9.59288951,4.375 10.0027884,4.52609889 10.2955734,4.8282967 C10.5737191,5.13049451 10.7201115,5.53846154 10.7201115,6.06730768 C10.7201115,6.46016483 10.5883583,6.8228022 10.3248519,7.17032967 L10.0759847,7.45741758 C9.16835134,8.28846153 8.61205996,8.90796703 8.40711049,9.33104395 C8.21680028,9.7239011 8.1289648,10.2074176 8.1289648,10.7664835 L8.1289648,11.0233517 L9.69536423,11.0233517 L9.69536423,10.7664835 C9.69536423,10.3887363 9.76856047,10.0563187 9.9295922,9.75412089 C10.0613454,9.48214286 10.2662949,9.22527473 10.5298013,8.98351649 C11.2324852,8.36401099 11.6423841,7.97115386 11.7741373,7.80494506 C12.1254793,7.32142857 12.3157895,6.70192309 12.3157895,5.96153846 C12.3157895,5.05494505 12.0230045,4.32967033 11.4520739,3.80082416 C10.866504,3.25686812 10.1052631,3 9.15371209,3 Z M8.90484489,11.8392857 C8.5974207,11.8392857 8.34855349,11.9299451 8.15824328,12.1414835 C7.93865458,12.3379121 7.83617985,12.5947802 7.83617985,12.9120879 C7.83617985,13.2142857 7.93865458,13.4711538 8.15824328,13.6826923 C8.34855349,13.8942308 8.5974207,14 8.90484489,14 C9.19762984,14 9.46113628,13.8942308 9.68072499,13.6978022 C9.88567446,13.4862637 9.98814918,13.2293956 9.98814918,12.9120879 C9.98814918,12.5947802 9.88567446,12.3379121 9.68072499,12.1414835 C9.47577553,11.929945 9.21226908,11.8392857 8.90484489,11.8392857 L8.90484489,11.8392857 Z" id="形状"></path>
                </g>
            </g>
        </g>
    </g>
</svg>