<?xml version="1.0" encoding="UTF-8"?>
<svg width="14px" height="14px" viewBox="0 0 14 14" version="1.1" xmlns="http://www.w3.org/2000/svg" xmlns:xlink="http://www.w3.org/1999/xlink">
    <title>问号（灰色）</title>
    <g id="首页" stroke="none" stroke-width="1" fill="none" fill-rule="evenodd" opacity="0.699999988">
        <g id="正常状态" transform="translate(-716.000000, -196.000000)" fill="#A9AEBA" fill-rule="nonzero">
            <g id="问号（灰色）" transform="translate(716.000000, 196.000000)">
                <path d="M7,12.8333333 C10.22175,12.8333333 12.8333333,10.22175 12.8333333,7 C12.8333333,3.77825 10.22175,1.16666666 7,1.16666666 C3.77825,1.16666666 1.16666666,3.77825 1.16666666,7 C1.16666666,10.22175 3.77825,12.8333333 7,12.8333333 Z M7,14 C3.13425,14 0,10.86575 0,7 C0,3.13425 3.13425,0 7,0 C10.86575,0 14,3.13425 14,7 C14,10.86575 10.86575,14 7,14 Z" id="形状"></path>
                <path d="M7.10816777,3 C6.35614423,3 5.75864606,3.23076923 5.32597498,3.7032967 C4.88300221,4.16483516 4.66666667,4.79120879 4.66666667,5.59340659 L5.75864606,5.59340659 C5.75864606,5.1098901 5.85136129,4.72527472 6.03679175,4.46153846 C6.24282561,4.15384616 6.58278146,4 7.04635762,4 C7.41721854,4 7.70566593,4.1098901 7.91169978,4.32967033 C8.10743193,4.54945055 8.21044886,4.84615385 8.21044886,5.23076922 C8.21044886,5.51648351 8.11773363,5.78021978 7.93230317,6.03296704 L7.75717439,6.24175824 C7.11846946,6.84615384 6.72700515,7.2967033 6.58278146,7.6043956 C6.44885946,7.89010989 6.3870493,8.24175823 6.3870493,8.64835165 L6.3870493,8.83516484 L7.48933039,8.83516484 L7.48933039,8.64835165 C7.48933039,8.37362638 7.54083885,8.13186813 7.65415747,7.91208792 C7.7468727,7.71428572 7.8910964,7.52747253 8.07652685,7.35164836 C8.57100809,6.9010989 8.85945547,6.61538462 8.95217072,6.4945055 C9.19941134,6.14285714 9.33333333,5.6923077 9.33333333,5.15384615 C9.33333333,4.49450549 9.12729948,3.96703296 8.72553348,3.58241757 C8.31346578,3.18681318 7.77777777,3 7.10816777,3 Z M6.933039,9.42857144 C6.71670345,9.42857144 6.54157468,9.4945055 6.40765268,9.64835165 C6.2531273,9.79120879 6.18101545,9.97802198 6.18101545,10.2087912 C6.18101545,10.4285714 6.2531273,10.6153846 6.40765268,10.7692308 C6.54157468,10.9230769 6.71670345,11 6.933039,11 C7.13907285,11 7.32450331,10.9230769 7.4790287,10.7802198 C7.6232524,10.6263736 7.69536424,10.4395605 7.69536424,10.2087912 C7.69536424,9.97802198 7.6232524,9.79120879 7.4790287,9.64835165 C7.334805,9.49450549 7.14937454,9.42857144 6.933039,9.42857144 L6.933039,9.42857144 Z" id="形状"></path>
            </g>
        </g>
    </g>
</svg>